HIERARCHY
ROOT hip
{
	OFFSET 0.000000 0.000000 0.000000 
	CHANNELS 6 Xposition Yposition Zposition Xrotation Zrotation Yrotation
	JOINT abdomen
	{
		OFFSET 0.000000 3.402643 0.000000 
		CHANNELS 3 Xrotation Zrotation Yrotation
		JOINT chest
		{
			OFFSET 0.000000 8.438565 -0.680529 
			CHANNELS 3 Xrotation Zrotation Yrotation
			JOINT neck
			{
				OFFSET 0.000000 10.207942 -0.272212 
				CHANNELS 3 Xrotation Zrotation Yrotation
				JOINT head
				{
					OFFSET 0.000000 3.130431 0.000000 
					CHANNELS 3 Xrotation Zrotation Yrotation
					End Site
					{
						OFFSET 0.000000 3.130435 0.000000 
					}
				}
			}
			JOINT lCollar
			{
				OFFSET 3.470700 6.669187 -0.816635 
				CHANNELS 3 Yrotation Zrotation Xrotation
				JOINT lShldr
				{
					OFFSET 3.198488 0.000000 0.000000 
					CHANNELS 3 Zrotation Yrotation Xrotation
					JOINT lForeArm
					{
						OFFSET 10.139888 0.000000 0.000000 
						CHANNELS 3 Yrotation Zrotation Xrotation
						JOINT lHand
						{
							OFFSET 8.370511 0.000000 0.000000 
							CHANNELS 3 Zrotation Yrotation Xrotation
							End Site
							{
								OFFSET 4.083176 0.000000 0.000000 
							}
						}
					}
				}
			}
			JOINT rCollar
			{
				OFFSET -3.470700 6.669187 -0.816635 
				CHANNELS 3 Yrotation Zrotation Xrotation
				JOINT rShldr
				{
					OFFSET -3.198488 0.000000 0.000000 
					CHANNELS 3 Zrotation Yrotation Xrotation
					JOINT rForeArm
					{
						OFFSET -10.139888 0.000000 0.000000 
						CHANNELS 3 Yrotation Zrotation Xrotation
						JOINT rHand
						{
							OFFSET -8.370511 0.000000 0.000000 
							CHANNELS 3 Zrotation Yrotation Xrotation
							End Site
							{
								OFFSET -4.083176 0.000000 0.000000 
							}
						}
					}
				}
			}
		}
	}
	JOINT lThigh
	{
		OFFSET 5.308129 -1.633274 1.361059 
		CHANNELS 3 Xrotation Zrotation Yrotation
		JOINT lShin
		{
			OFFSET -2.041588 -20.007561 0.000000 
			CHANNELS 3 Xrotation Zrotation Yrotation
			JOINT lFoot
			{
				OFFSET 0.000000 -19.190928 -1.224953 
				CHANNELS 3 Xrotation Yrotation Zrotation
				End Site
				{
					OFFSET 0.000000 -2.449906 4.627600 
				}
			}
		}
	}
	JOINT rThigh
	{
		OFFSET -5.308129 -1.633274 1.361059 
		CHANNELS 3 Xrotation Zrotation Yrotation
		JOINT rShin
		{
			OFFSET 2.041588 -20.007561 0.000000 
			CHANNELS 3 Xrotation Zrotation Yrotation
			JOINT rFoot
			{
				OFFSET 0.000000 -19.190928 -1.224953 
				CHANNELS 3 Xrotation Yrotation Zrotation
				End Site
				{
					OFFSET 0.000000 -2.449906 4.627600 
				}
			}
		}
	}
}
MOTION
Frames: 13
Frame Time: 0.011111
41.015350 52.898373 37.537800 -8.411228 3.279826 -169.743027 25.945478 -5.204942 3.652814 -20.544809 4.486460 1.919526 -12.841715 -9.328104 -2.912216 22.833956 8.992230 -6.303076 9.969777 -14.785672 3.853935 -63.142475 -35.769650 23.996508 -55.208298 8.705581 10.316892 8.524705 12.647240 -52.327526 -4.049711 8.641859 2.072876 63.831219 32.017353 14.440926 55.686134 -8.784586 10.524626 -8.534408 -12.637552 54.046730 -10.494081 20.325277 -0.745409 41.539948 -4.543388 -6.290857 -13.127701 9.872311 -1.004397 -9.226693 -7.566765 -2.457849 31.224371 5.253126 4.982416 -27.642052 -2.395040 0.790380 
41.261890 52.887409 37.329170 -8.247752 3.355568 -170.084427 26.047735 -5.113195 3.602959 -20.348436 4.577135 1.904162 -12.899169 -9.722939 -3.051549 22.677334 9.620464 -6.546086 9.969777 -14.785672 3.853935 -63.345455 -35.676270 23.601912 -54.890728 8.653089 10.175747 8.524705 12.647240 -52.620491 -4.049711 8.641859 2.072876 63.712456 32.432339 14.768663 55.844982 -8.807912 10.590736 -8.534408 -12.637552 54.154160 -11.234938 20.655725 -0.858705 43.140198 -4.390347 -6.480219 -11.773018 10.774971 -1.145766 -8.539252 -7.055627 -2.106860 30.773058 5.297021 4.914836 -27.751680 -2.161407 0.880460 
41.492138 52.883961 37.117096 -8.120471 3.633164 -170.317108 26.105824 -4.656335 3.540231 -20.251451 4.426468 1.835587 -12.810768 -9.977427 -3.205953 22.235367 10.136138 -6.808113 9.969777 -14.785672 3.853935 -63.414631 -35.480419 23.357901 -54.689819 8.619810 10.090116 8.524705 12.647240 -52.679092 -4.049711 8.641859 2.072876 63.698044 32.921635 15.236812 55.696907 -8.787508 10.534418 -8.534408 -12.637552 54.183453 -12.193986 21.118134 -1.263521 44.736980 -4.270319 -6.640100 -10.163937 11.699858 -1.333547 -7.767267 -6.381386 -1.994756 30.175949 5.312310 4.855963 -27.671837 -1.981390 0.994599 
41.712994 52.906517 36.907207 -8.014331 3.821370 -170.654999 26.150864 -4.394270 3.693316 -20.301943 4.174276 1.844835 -12.546021 -9.773809 -3.492329 21.841219 9.957562 -7.335151 9.969777 -14.785672 3.853935 -63.292454 -35.208824 23.500261 -54.499855 8.588251 10.003330 8.524705 12.647240 -52.708385 -4.049711 8.641859 2.072876 63.758656 32.929153 15.600265 55.813747 -8.805364 10.579038 -8.534408 -12.637552 54.193226 -13.132544 21.432388 -1.597002 46.273598 -4.133804 -6.804684 -9.310988 11.824197 -1.479006 -7.047055 -5.846358 -2.071302 29.527527 5.341154 4.765858 -27.380161 -1.668799 1.202437 
41.928513 52.951630 36.697006 -7.948341 3.666825 -171.172867 26.260593 -4.643225 3.799878 -20.497931 4.132675 1.889985 -12.395819 -9.750926 -3.691346 21.913816 9.887039 -7.734766 9.969777 -14.785672 3.853935 -63.344437 -34.797928 23.440702 -54.278450 8.552938 9.916843 8.524705 12.647240 -53.186905 -4.049711 8.641859 2.072876 63.709595 32.569298 15.979255 56.321430 -8.874412 10.792030 -8.534408 -12.637552 54.329937 -13.794783 21.313152 -1.738124 47.788662 -3.990172 -6.981025 -8.931108 12.000491 -1.542013 -6.425281 -5.702653 -2.058286 28.805733 5.390201 4.664598 -27.076353 -1.289914 1.430272 
42.129944 52.996113 36.464874 -7.932658 3.737710 -171.764297 26.097279 -4.517651 3.935920 -20.556629 4.135114 1.915054 -11.865722 -10.023725 -3.786793 21.548857 10.291316 -7.803568 9.969777 -14.785672 3.853935 -63.524586 -34.282818 23.181456 -54.077557 8.516924 9.831009 8.524705 12.647240 -53.694714 -4.049711 8.641859 2.072876 63.549725 32.389523 16.281157 56.512699 -8.902905 10.879025 -8.534408 -12.637552 54.222511 -14.536357 21.420139 -1.783779 49.243843 -3.843771 -7.138427 -8.427765 12.422688 -1.620331 -5.863932 -5.297770 -1.795743 28.123178 5.434000 4.574868 -26.902212 -1.179381 1.472248 
42.306942 53.004257 36.229927 172.134598 175.974579 7.834307 25.875986 -4.012549 4.058341 -20.577013 3.998551 1.886070 -11.204830 -10.082857 -3.881192 21.114416 10.408581 -7.870598 9.969777 -14.785672 3.853935 -63.611698 -33.709816 23.048162 -53.951309 8.496179 9.776994 8.524705 12.647240 -53.850960 -4.049711 8.641859 2.072876 63.377491 32.356804 15.957349 56.968639 -8.962222 11.071544 -8.534408 -12.637552 55.472515 -15.408857 21.756508 -1.922202 50.648476 -3.707134 -7.283258 -7.805045 12.480630 -1.735606 -5.190353 -4.682804 -1.522698 27.491091 5.471820 4.469201 -26.854128 -1.116112 1.504068 
42.473907 53.002068 36.007824 172.205902 175.969498 7.521606 25.883823 -3.829553 4.041009 -20.724840 3.817458 1.860079 -11.020539 -9.898456 -3.949904 21.175465 10.195326 -7.989390 9.969777 -14.785672 3.853935 -63.641640 -33.222683 22.964550 -53.846764 8.481303 9.732514 8.524705 12.647240 -53.977921 -4.049711 8.641859 2.072876 63.308846 32.193172 16.360134 57.169273 -8.985009 11.163108 -8.534408 -12.637552 55.531109 -16.130711 21.765289 -2.070652 51.982826 -3.597796 -7.412829 -7.231284 11.952064 -1.878562 -4.564396 -4.417821 -1.556353 26.911551 5.478015 4.427832 -26.659853 -0.921139 1.648636 
42.649021 53.008018 35.793865 172.127396 175.928879 6.959780 25.707359 -3.831672 4.317679 -20.931446 3.601411 1.929861 -10.823522 -9.784450 -4.086373 21.206102 10.416183 -8.167245 9.969777 -14.785672 3.853935 -63.600986 -32.744137 22.993441 -53.761364 8.461532 9.693094 8.524705 12.647240 -54.261116 -4.049711 8.641859 2.072876 63.420902 32.032623 16.579279 57.201756 -8.991928 11.183262 -8.534408 -12.637552 55.130718 -16.946423 21.789642 -2.036348 53.278069 -3.443460 -7.544463 -7.124214 11.151350 -1.976344 -4.159525 -4.178958 -1.625430 26.348503 5.506270 4.354966 -26.344854 -0.497803 1.900069 
42.827583 53.000813 35.574894 172.153824 175.798889 6.292852 25.662390 -3.737071 4.652162 -21.185421 3.651456 2.000648 -10.803109 -10.026058 -4.065914 21.574348 10.779340 -8.096506 9.969777 -14.785672 3.853935 -63.855110 -32.101654 22.972750 -53.845402 8.476158 9.734459 8.524705 12.647240 -54.563854 -4.049711 8.641859 2.072876 63.240742 31.843790 16.474926 57.296749 -9.001341 11.219352 -8.534408 -12.637552 54.964703 -17.739075 21.947807 -1.951636 54.561741 -3.316936 -7.676284 -7.537786 10.026151 -2.004963 -3.612388 -3.758693 -1.406622 25.734777 5.535727 4.267225 -26.104479 -0.194246 2.068424 
42.989540 52.987026 35.345898 172.263062 175.893570 5.769836 25.757477 -3.700027 4.644150 -21.154917 3.874681 1.986527 -11.205219 -10.369692 -3.825894 22.065561 10.914225 -7.735201 9.969777 -14.785672 3.853935 -64.454155 -31.781912 22.565531 -53.814137 8.472288 9.723327 8.524705 12.647240 -55.042370 -4.049711 8.641859 2.072876 62.769855 31.851328 16.931278 57.540859 -9.030419 11.322291 -8.534408 -12.637552 54.788921 -18.333740 21.790682 -1.930872 55.815956 -3.179980 -7.788157 -8.103900 8.545534 -2.065854 -2.946336 -3.531456 -1.185923 25.119783 5.565009 4.188943 -25.938129 -0.183301 2.074775 
43.130821 52.965412 35.131939 172.198105 175.762466 5.383894 25.599930 -3.409780 4.811690 -20.901546 3.690340 2.017522 -11.534131 -10.221523 -3.755544 22.146486 10.665612 -7.669324 9.969777 -14.785672 3.853935 -64.835464 -31.952175 22.069584 -53.371731 8.392769 9.532999 8.524705 12.647240 -55.491589 -4.049711 8.641859 2.072876 62.634052 32.139751 16.784534 57.913589 -9.077714 11.490918 -8.534408 -12.637552 55.755718 -19.305714 21.815582 -2.022113 57.040478 -3.060973 -7.875335 -8.334271 6.917182 -2.217738 -2.457730 -3.169250 -1.209900 24.573587 5.598723 4.098042 -25.723373 -0.202934 2.083240 
43.268032 52.930641 34.927063 172.094254 175.639801 4.985638 25.437786 -3.180625 5.127730 -20.894041 3.281087 2.076438 -11.646756 -9.822881 -3.789652 22.347187 10.281823 -7.750221 9.969777 -14.785672 3.853935 -64.797020 -31.848360 22.165216 -53.139633 8.348451 9.438164 8.524705 12.647240 -55.393929 -4.049711 8.641859 2.072876 62.790230 32.251347 16.433847 58.019253 -9.087821 11.537669 -8.534408 -12.637552 56.273300 -20.317938 21.871063 -1.988142 58.136112 -2.926440 -7.990152 -8.427960 5.035504 -2.456389 -2.108061 -2.888453 -1.260686 24.217745 5.624784 4.051230 -25.639103 0.266445 2.314440 
